<?xml version="1.0" ?><svg version="1.1" viewBox="0 0 64 64" xmlns="http://www.w3.org/2000/svg" xmlns:xlink="http://www.w3.org/1999/xlink"><title/><desc/><g fill="none" fill-rule="evenodd" id="Cancel" stroke="none" stroke-width="1"><g fill="currentColor" id="Group" transform="translate(14.000000, 14.000000)"><path d="M0.732233047,0.732233047 C1.70854378,-0.244077682 3.29145622,-0.244077682 4.26776695,0.732233047 L34.6733585,31.1378246 C35.6496693,32.1141354 35.6496693,33.6970478 34.6733585,34.6733585 C33.6970478,35.6496693 32.1141354,35.6496693 31.1378246,34.6733585 L0.732233047,4.26776695 C-0.244077682,3.29145622 -0.244077682,1.70854378 0.732233047,0.732233047 Z" id="Rectangle"/><path d="M0.732233047,34.6733585 C1.70854378,35.6496693 3.29145622,35.6496693 4.26776695,34.6733585 L34.6733585,4.26776695 C35.6496693,3.29145622 35.6496693,1.70854378 34.6733585,0.732233047 C33.6970478,-0.244077682 32.1141354,-0.244077682 31.1378246,0.732233047 L0.732233047,31.1378246 C-0.244077682,32.1141354 -0.244077682,33.6970478 0.732233047,34.6733585 Z" id="Rectangle"/></g></g></svg>
