<?xml version="1.0" ?><svg data-name="Layer 1" height="200" id="Layer_1" viewBox="0 0 200 200" fill="currentColor" width="200" xmlns="http://www.w3.org/2000/svg"><title/><path d="M150,47.5h-3.5l-3-7a30.06,30.06,0,0,0-27.5-18H84a30.06,30.06,0,0,0-27.5,18l-3,7H50a40.12,40.12,0,0,0-40,40v50a40.12,40.12,0,0,0,40,40H150a40.12,40.12,0,0,0,40-40v-50A40.12,40.12,0,0,0,150,47.5Zm20,90a20.06,20.06,0,0,1-20,20H50a20.06,20.06,0,0,1-20-20v-50a20.06,20.06,0,0,1,20-20c3.5,0,7.5.5,11,0a15.5,15.5,0,0,0,6.5-3c2-1.5,3-4,4-6,1.5-3,2.5-6,4-9.5A8.57,8.57,0,0,1,84,42.5h32a9.88,9.88,0,0,1,9,6c1,2,1.5,3.5,2.5,5.5,1.5,3,2,6,4,8.5s5.5,4,8.5,4.5c1.5.5,3.5,0,5,0h5a20.06,20.06,0,0,1,20,20Zm-70-65a35,35,0,1,0,35,35A34.78,34.78,0,0,0,100,72.5Zm0,50a15,15,0,1,1,15-15A14.73,14.73,0,0,1,100,122.5Z"/></svg>
