<?xml version="1.0" standalone="no"?>
<!DOCTYPE svg PUBLIC "-//W3C//DTD SVG 20010904//EN"
 "http://www.w3.org/TR/2001/REC-SVG-20010904/DTD/svg10.dtd">
<svg version="1.0" xmlns="http://www.w3.org/2000/svg"
 width="500.000000pt" height="500.000000pt" viewBox="0 0 500.000000 500.000000"
 preserveAspectRatio="xMidYMid meet">
<metadata>
Created by potrace 1.14, written by Peter Selinger 2001-2017
</metadata>
<g transform="translate(0.000000,500.000000) scale(0.100000,-0.100000)"
fill="#000000" stroke="none">
<path d="M1757 4958 c-156 -20 -310 -155 -415 -363 -43 -87 -58 -145 -82 -325
-11 -81 -16 -362 -7 -377 3 -5 8 -35 11 -68 10 -90 17 -125 26 -125 5 0 11 15
15 33 15 70 107 383 132 446 55 139 125 255 193 319 88 82 180 92 286 31 31
-17 120 -93 197 -168 78 -75 157 -147 176 -161 77 -54 204 -55 248 -2 29 34
54 118 51 168 -3 50 -41 145 -85 211 -152 230 -508 412 -746 381z"/>
<path d="M3125 4805 c-113 -26 -201 -99 -256 -213 -51 -107 -51 -255 2 -348 9
-17 23 -42 31 -55 23 -41 91 -98 148 -126 66 -31 157 -40 231 -23 213 49 344
309 262 521 -70 180 -248 284 -418 244z"/>
<path d="M4401 4107 c-6 -16 -11 -35 -11 -43 0 -27 -99 -225 -154 -309 -93
-139 -294 -324 -422 -388 -80 -40 -143 -21 -219 66 -43 48 -61 86 -115 242
-21 61 -48 129 -60 153 -41 83 -126 144 -187 134 -48 -7 -124 -109 -140 -190
-37 -184 70 -460 251 -644 110 -113 185 -150 301 -150 68 -1 97 6 170 41 182
85 351 252 457 451 55 102 126 293 146 390 9 44 10 244 2 260 -7 12 -11 9 -19
-13z"/>
<path d="M1280 3683 c0 -5 5 -15 10 -23 7 -12 9 -10 7 8 -1 19 -17 33 -17 15z"/>
<path d="M1545 3427 c-52 -17 -82 -45 -103 -94 -27 -64 -32 -125 -15 -198 16
-71 46 -119 126 -202 l59 -62 -48 -58 c-27 -31 -59 -69 -70 -83 -116 -137
-322 -368 -495 -555 -30 -33 -104 -116 -165 -185 -60 -69 -111 -127 -114 -130
-3 -3 -53 -61 -112 -130 -113 -134 -119 -140 -277 -309 -58 -62 -111 -121
-119 -132 -14 -20 -13 -20 23 -5 56 24 192 110 565 360 190 127 390 260 445
296 337 216 497 330 597 426 35 33 90 81 123 106 34 25 67 53 74 62 7 9 21 16
31 16 21 0 92 -47 154 -101 57 -50 61 -86 17 -145 -48 -66 -86 -94 -284 -208
-54 -31 -141 -81 -194 -113 -54 -31 -170 -93 -258 -138 -88 -45 -180 -93 -205
-106 l-45 -23 30 -6 c59 -13 258 2 400 30 117 23 465 129 588 179 191 78 341
206 417 356 63 126 43 215 -91 396 -92 124 -165 205 -335 369 -217 209 -365
311 -548 377 -52 18 -132 23 -171 10z"/>
<path d="M3770 989 c-97 -34 -150 -106 -150 -206 1 -113 46 -169 198 -243 102
-49 122 -65 122 -96 0 -70 -144 -70 -312 1 -16 6 -17 -2 -15 -86 l2 -93 50
-20 c72 -28 241 -32 312 -7 70 24 119 63 147 119 44 90 28 201 -38 262 -15 14
-75 50 -134 80 -121 63 -142 85 -114 120 23 29 95 29 182 0 35 -12 66 -18 70
-13 13 14 61 145 56 151 -3 3 -41 15 -83 27 -99 29 -215 30 -293 4z"/>
<path d="M450 991 c0 -5 40 -132 90 -282 49 -151 104 -320 122 -376 l32 -103
122 0 122 0 16 43 c8 23 40 119 71 212 30 94 80 246 110 338 30 93 55 170 55
172 0 1 -51 4 -114 4 l-114 2 -11 -33 c-30 -95 -110 -406 -118 -460 -5 -36
-22 -53 -24 -25 -1 27 -12 71 -65 272 -30 116 -57 217 -60 227 -4 14 -22 16
-119 17 -64 1 -115 -3 -115 -8z"/>
<path d="M1275 618 l0 -383 253 -3 252 -2 0 85 0 85 -132 -1 c-73 -1 -140 -1
-149 0 -14 1 -16 33 -15 296 1 237 -2 296 -12 300 -8 3 -55 5 -105 5 l-92 0 0
-382z"/>
<path d="M1903 615 l0 -385 104 0 103 0 0 384 0 385 -103 0 -104 1 0 -385z"/>
<path d="M2220 994 c0 -4 49 -84 108 -178 60 -94 112 -176 116 -183 3 -6 -19
-51 -50 -100 -32 -48 -85 -131 -119 -183 -34 -52 -65 -101 -69 -108 -6 -9 19
-12 111 -12 l118 1 69 115 c38 63 73 113 78 112 4 -2 39 -52 77 -113 l68 -110
122 -3 122 -3 -75 108 c-41 59 -100 145 -131 190 l-57 81 77 124 c43 67 92
146 110 173 17 28 37 60 44 72 l12 23 -120 -1 -119 0 -25 -47 c-51 -98 -101
-182 -106 -182 -3 0 -35 51 -71 114 l-65 114 -112 1 c-62 1 -113 -1 -113 -5z"/>
<path d="M3059 967 c0 -18 0 -189 -1 -382 l0 -350 228 0 229 0 0 80 0 80 -125
5 -125 5 0 68 c0 52 3 67 15 68 8 1 60 2 115 3 l100 1 0 80 0 80 -114 5 -115
5 -1 48 c0 26 2 52 5 57 3 5 60 11 125 12 l120 3 0 70 c0 39 -1 76 -3 82 -3 9
-60 12 -228 12 l-224 0 -1 -32z"/>
<path d="M4325 381 c-148 -67 -140 -274 12 -326 162 -56 301 116 212 262 -43
70 -146 99 -224 64z m132 -23 c83 -36 116 -140 70 -213 -31 -48 -64 -67 -119
-70 -107 -6 -182 84 -155 185 22 84 123 133 204 98z"/>
<path d="M4332 219 c-1 -81 2 -97 14 -92 9 3 14 19 14 43 0 32 3 39 20 37 11
-1 26 -16 37 -37 21 -41 34 -53 47 -40 5 5 0 23 -12 44 -18 31 -19 37 -7 50
17 16 19 54 6 75 -6 10 -29 16 -64 17 l-55 2 0 -99z m98 52 c8 -16 5 -21 -18
-29 -15 -5 -33 -7 -39 -5 -14 5 -18 35 -6 46 13 14 53 6 63 -12z"/>
</g>
</svg>
